<svg width="36" height="36" viewBox="0 0 36 36" fill="none" xmlns="http://www.w3.org/2000/svg">
<path d="M30.6616 30.8714C30.5153 30.4615 30.3047 30.1254 30.0847 29.8172C29.7547 29.3586 29.3926 28.9611 29.1425 28.653C29.0253 28.5119 28.9381 28.3936 28.8956 28.3251C28.8893 28.2234 28.881 28.1187 28.8696 27.9868C28.8032 27.2989 28.6444 26.0559 28.4732 24.623C28.303 23.1921 28.1194 21.5838 28.0104 20.2246C27.778 17.3048 26.2258 14.5168 23.6162 12.8006C23.5343 12.703 23.4574 12.6107 23.3827 12.5215H24.5594L29.5357 8.3877C29.986 8.0131 30.0462 7.34492 29.6727 6.89462C29.2981 6.44432 28.6299 6.38309 28.1806 6.75762L23.7936 10.4017H23.1067C23.3506 9.95754 23.6649 9.36925 23.9846 8.73009C24.3176 8.06085 24.6528 7.34074 24.9142 6.66525C25.046 6.32698 25.1591 5.99913 25.2431 5.68264C25.3272 5.36409 25.3894 5.0642 25.3915 4.72599C25.3904 4.55061 25.3749 4.35969 25.3033 4.14075L25.2214 3.89797L25.0398 3.71947C24.355 3.05335 23.4979 2.68393 22.6295 2.46293C21.7568 2.24293 20.8552 2.17035 20.0116 2.17035C19.2417 2.17035 18.5268 2.23157 17.9312 2.31458L17.4135 1.07777L16.7671 1.02902C16.5057 1.00937 16.2504 1 16.0034 1C13.6886 0.997945 11.9309 1.8083 10.7833 2.61972C9.63157 3.43114 9.063 4.23731 9.01419 4.30584L8.67698 4.78835L11.078 10.4069C10.5135 10.4298 10.0632 10.8915 10.0632 11.4622C10.0632 12.0308 10.5125 12.4915 11.0748 12.5174C11.0043 12.5963 10.9265 12.6793 10.831 12.7675C8.19454 14.4805 6.62257 17.2861 6.38703 20.2246C6.26358 21.7789 6.04251 23.657 5.85372 25.2237C5.75929 26.0071 5.6711 26.7138 5.60675 27.2699C5.57461 27.548 5.54865 27.7887 5.52999 27.9869C5.5175 28.1187 5.51027 28.2245 5.50509 28.3262C5.4501 28.4144 5.31935 28.5835 5.15333 28.7796C4.88665 29.0981 4.53702 29.4903 4.22677 29.9428C4.07111 30.1711 3.92482 30.4159 3.80655 30.695C3.68927 30.9741 3.59797 31.2937 3.59697 31.659C3.58973 32.544 4.01201 33.4478 4.78916 34.0568C5.56525 34.6711 6.63811 35 7.9507 35C10.2314 35 17.0722 35 17.0722 35H17.3254C17.3265 35 17.7529 35 18.4315 35C20.462 35 24.739 35 26.448 35C27.7605 35 28.8334 34.6711 29.6106 34.0568C30.3867 33.4488 30.8101 32.544 30.8027 31.659C30.8027 31.3694 30.7436 31.1059 30.6616 30.8714ZM12.0865 4.29435C12.9602 3.70294 14.2261 3.12912 15.9713 3.11976L17.2009 6.0593C17.4261 6.59991 18.0465 6.85411 18.5861 6.62893C19.1267 6.40275 19.3809 5.78225 19.1557 5.24164L19.0332 4.95005C19.0249 4.83902 19.0041 4.72699 18.9585 4.61908L18.8444 4.34309C19.2096 4.31095 19.606 4.2891 20.0117 4.2891C20.7297 4.28804 21.4757 4.35551 22.1086 4.51741C22.56 4.6305 22.9398 4.7924 23.2334 4.98332C23.2241 5.03 23.2117 5.0798 23.1971 5.13379C23.0986 5.50627 22.8972 6.0334 22.6534 6.58437C22.2881 7.41339 21.8264 8.31093 21.4601 8.99366C21.2754 9.33505 21.1156 9.62345 21.0015 9.82579C20.9445 9.92746 20.8988 10.0064 20.8687 10.0603C20.8386 10.1142 20.823 10.1402 20.823 10.1402L20.8241 10.1422C20.7701 10.2242 20.7193 10.3114 20.6736 10.4016H13.3918C13.3431 10.2791 13.2891 10.1609 13.231 10.0498L11.1163 5.10258C11.3405 4.87441 11.6632 4.58282 12.0865 4.29435ZM28.2917 32.3967C27.9898 32.6385 27.416 32.8802 26.4479 32.8802C25.3076 32.8802 23.028 32.8802 21.0316 32.8802C20.0344 32.8802 19.1079 32.8802 18.4314 32.8802C17.7528 32.8802 17.3263 32.8802 17.3253 32.8802H17.0721C17.0721 32.8802 10.2312 32.8802 7.95063 32.8802C6.98356 32.8802 6.40874 32.6384 6.10786 32.3967C5.80797 32.1508 5.7229 31.9142 5.71666 31.659L5.71872 31.6413C5.72595 31.5863 5.79761 31.4026 5.9439 31.1868C6.15972 30.8568 6.50835 30.4626 6.83208 30.0745C6.99604 29.8774 7.15269 29.6833 7.29693 29.4571C7.36851 29.344 7.43804 29.2216 7.49927 29.0701C7.55843 28.9196 7.61548 28.735 7.61654 28.4911C7.61548 28.4911 7.62278 28.3594 7.63938 28.1892C7.69855 27.5707 7.85939 26.3101 8.03058 24.874C8.20284 23.4338 8.38645 21.8059 8.49961 20.3937C8.68641 18.0612 9.94913 15.8251 12.0648 14.4918L12.1416 14.442L12.2069 14.3829C12.6821 13.9553 13.0391 13.5082 13.2798 13.035C13.367 12.8669 13.4303 12.6947 13.4853 12.5214H20.7972C20.9145 12.7445 21.0473 12.9603 21.206 13.1792C21.4529 13.5196 21.7476 13.8765 22.0942 14.2832L22.199 14.4057L22.3349 14.4918C24.4485 15.8251 25.7112 18.0612 25.899 20.3947C26.0277 22.0072 26.2508 23.9039 26.4417 25.479C26.5372 26.2655 26.6243 26.97 26.6866 27.5127C26.7188 27.7835 26.7427 28.0139 26.7593 28.1892C26.7769 28.3594 26.7831 28.4912 26.7821 28.4912C26.7884 28.8388 26.8911 29.0619 26.9824 29.2476C27.1495 29.5662 27.3435 29.8007 27.5448 30.0487C27.8467 30.4119 28.1725 30.7781 28.3946 31.0977C28.5056 31.2565 28.5897 31.4017 28.6343 31.5055C28.6571 31.5574 28.6706 31.5989 28.6768 31.6248L28.6831 31.6529V31.6591C28.6767 31.9142 28.5916 32.1508 28.2917 32.3967Z" fill="#0E5744"/>
<path d="M29.6718 12.5121L27.3299 11.2515L25.5722 12.7124L28.6673 14.3777C29.183 14.6558 29.8253 14.4628 30.1034 13.9472C30.3815 13.4325 30.1874 12.7892 29.6718 12.5121Z" fill="#0E5744"/>
<path d="M16.3584 28.424C16.3264 28.584 16.2304 28.7227 16.0704 28.84C15.9211 28.9467 15.7078 29 15.4304 29C15.1958 29 15.0091 28.936 14.8704 28.808C14.7424 28.68 14.6731 28.5467 14.6624 28.408C14.7264 27.96 14.7584 27.288 14.7584 26.392C14.7584 25.8587 14.7264 25.0373 14.6624 23.928C14.5878 22.8827 14.5504 21.9547 14.5504 21.144C14.5504 20.7067 14.5718 20.2587 14.6144 19.8C14.6144 19.6507 14.6998 19.4907 14.8704 19.32C15.0518 19.1493 15.2971 19.0427 15.6064 19C16.6198 18.8933 17.8624 18.84 19.3344 18.84H19.8464C20.2304 18.84 20.6038 18.9093 20.9664 19.048C21.3398 19.1867 21.5264 19.4267 21.5264 19.768C21.5264 19.992 21.4731 20.168 21.3664 20.296C21.2598 20.424 21.0624 20.488 20.7744 20.488C20.6358 20.488 20.4758 20.4773 20.2944 20.456C20.1131 20.4347 19.9851 20.4187 19.9104 20.408C19.5051 20.344 19.1904 20.312 18.9664 20.312C17.7291 20.312 16.7958 20.3973 16.1664 20.568C16.1664 20.92 16.1771 21.4907 16.1984 22.28L16.2144 23.304C16.7691 23.304 17.2651 23.2827 17.7024 23.24C18.1398 23.1867 18.3904 23.1547 18.4544 23.144C19.0091 23.08 19.3771 23.048 19.5584 23.048C19.8144 23.048 20.0278 23.1067 20.1984 23.224C20.3798 23.3307 20.4704 23.5013 20.4704 23.736C20.4704 24.2693 20.0971 24.536 19.3504 24.536C19.1691 24.536 19.0091 24.5413 18.8704 24.552C18.7318 24.5627 18.6144 24.5733 18.5184 24.584C18.1344 24.6267 17.8304 24.648 17.6064 24.648C17.1158 24.648 16.6998 24.664 16.3584 24.696C16.3584 25.0907 16.3744 25.5067 16.4064 25.944C16.4064 26.0827 16.4118 26.296 16.4224 26.584C16.4438 26.872 16.4544 27.1333 16.4544 27.368C16.4544 27.5707 16.4491 27.7573 16.4384 27.928C16.4278 28.0987 16.4011 28.264 16.3584 28.424Z" fill="#0E5744"/>
</svg>
