<svg width="36" height="36" viewBox="0 0 36 36" fill="none" xmlns="http://www.w3.org/2000/svg">
<path d="M25.6482 3.50407C24.7992 3.10609 23.9968 2.7304 23.2656 2.36319C21.3924 1.42502 19.6955 0.969727 18.0759 0.969727C14.8157 0.969727 12.5604 2.85032 11.1457 4.26501L4.28561 11.1326C0.614626 14.8078 0.028798 18.5488 2.38591 23.2641C2.75205 23.9964 3.12775 24.8009 3.52573 25.6531C5.67164 30.2431 7.88973 34.9881 11.5204 34.9881C11.6223 34.9881 11.7231 34.9849 11.826 34.9764C15.5724 34.6835 16.6358 29.8589 17.5739 25.6042C17.7225 24.9303 17.8647 24.284 18.0091 23.7045C18.2617 22.7027 18.7573 22.0808 20.1168 20.7181L20.3036 20.5302L20.4182 20.4156L20.7207 20.1142C22.0833 18.7515 22.7053 18.2559 23.7092 18.0033C24.2834 17.859 24.9276 17.7168 25.6004 17.5693C29.853 16.6311 34.6744 15.5677 34.9663 11.8139C35.2613 8.00604 30.3752 5.71685 25.6482 3.50407ZM32.7864 11.6218C32.5794 14.2676 26.6575 15.0487 23.1319 15.9328C21.5729 16.3265 20.6241 17.1522 19.1924 18.5839C19.0926 18.6836 18.9918 18.7834 18.891 18.8842C18.7902 18.985 18.6904 19.0869 18.5907 19.1856C17.159 20.6194 16.3354 21.5671 15.9428 23.1283C15.0576 26.657 14.2787 32.5864 11.6361 32.7934C11.5883 32.7966 11.5405 32.7987 11.4928 32.7987C8.68888 32.7987 6.32964 26.4225 4.24846 22.2633C2.13439 18.0341 3.03966 15.2918 5.7523 12.5759C6.27233 12.0548 6.92078 11.4075 7.71356 10.6136C8.52331 9.80279 9.48696 8.83808 10.6289 7.69508C11.4217 6.90124 12.0691 6.25492 12.5902 5.73277C14.2755 4.04639 15.9714 3.05833 18.0261 3.05833C19.2794 3.05833 20.6676 3.42448 22.2669 4.22787C26.494 6.34725 33.0093 8.75318 32.7864 11.6218ZM16.8777 12.6481H19.0003V10.5255H16.8777V12.6481ZM16.8777 9.46424H19.0003V7.34167H16.8777V9.46424ZM20.0616 9.46424H22.1842V7.34167H20.0616V9.46424ZM20.0616 12.6481H22.1842V10.5255H20.0616V12.6481ZM11.9396 19.0211L12.7472 18.2135C13.1452 17.8155 13.1452 17.1702 12.7472 16.7722C12.3492 16.3743 11.705 16.3743 11.3071 16.7722L10.4994 17.5799L9.69179 16.7722C9.29381 16.3743 8.64961 16.3743 8.25163 16.7722C7.85364 17.1702 7.85364 17.8155 8.25163 18.2135L9.05926 19.0211L8.25163 19.8287C7.85364 20.2267 7.85364 20.872 8.25163 21.2689C8.64961 21.6658 9.29487 21.6669 9.69179 21.2689L10.4994 20.4613L11.3304 21.2923C11.7284 21.6902 12.3726 21.6902 12.7706 21.2923C13.1686 20.8943 13.1686 20.249 12.7706 19.851L11.9396 19.0211Z" fill="#0E5744"/>
</svg>
