<svg width="36" height="36" viewBox="0 0 36 36" fill="none" xmlns="http://www.w3.org/2000/svg">
<g opacity="0.75">
<path d="M25.6482 3.50395C24.7992 3.10597 23.9968 2.73027 23.2656 2.36307C21.3924 1.4249 19.6955 0.969604 18.0759 0.969604C14.8157 0.969604 12.5604 2.8502 11.1457 4.26489L4.28561 11.1325C0.614626 14.8077 0.028798 18.5487 2.38591 23.264C2.75205 23.9963 3.12775 24.8007 3.52573 25.6529C5.67164 30.243 7.88973 34.988 11.5204 34.988C11.6223 34.988 11.7231 34.9848 11.826 34.9763C15.5724 34.6834 16.6358 29.8588 17.5739 25.6041C17.7225 24.9302 17.8647 24.2839 18.0091 23.7044C18.2617 22.7026 18.7573 22.0807 20.1168 20.718L20.3036 20.5301L20.4182 20.4155L20.7207 20.1141C22.0833 18.7514 22.7053 18.2558 23.7092 18.0032C24.2834 17.8589 24.9276 17.7167 25.6004 17.5691C29.853 16.631 34.6744 15.5676 34.9663 11.8138C35.2613 8.00592 30.3752 5.71673 25.6482 3.50395ZM32.7864 11.6217C32.5794 14.2675 26.6575 15.0486 23.1319 15.9326C21.5729 16.3264 20.6241 17.1521 19.1924 18.5837C19.0926 18.6835 18.9918 18.7833 18.891 18.8841C18.7902 18.9849 18.6904 19.0868 18.5907 19.1855C17.159 20.6193 16.3354 21.567 15.9428 23.1281C15.0576 26.6569 14.2787 32.5863 11.6361 32.7933C11.5883 32.7964 11.5405 32.7986 11.4928 32.7986C8.68888 32.7986 6.32964 26.4224 4.24846 22.2632C2.13439 18.034 3.03966 15.2916 5.7523 12.5758C6.27233 12.0547 6.92078 11.4073 7.71356 10.6135C8.52331 9.80267 9.48696 8.83796 10.6289 7.69496C11.4217 6.90112 12.0691 6.2548 12.5902 5.73265C14.2755 4.04627 15.9714 3.05821 18.0261 3.05821C19.2794 3.05821 20.6676 3.42435 22.2669 4.22775C26.494 6.34713 33.0093 8.75306 32.7864 11.6217ZM16.8777 12.648H19.0003V10.5254H16.8777V12.648ZM16.8777 9.46412H19.0003V7.34155H16.8777V9.46412ZM20.0616 9.46412H22.1842V7.34155H20.0616V9.46412ZM20.0616 12.648H22.1842V10.5254H20.0616V12.648ZM11.9396 19.021L12.7472 18.2133C13.1452 17.8154 13.1452 17.1701 12.7472 16.7721C12.3492 16.3741 11.705 16.3741 11.3071 16.7721L10.4994 17.5798L9.69179 16.7721C9.29381 16.3741 8.64961 16.3741 8.25163 16.7721C7.85364 17.1701 7.85364 17.8154 8.25163 18.2133L9.05926 19.021L8.25163 19.8286C7.85364 20.2266 7.85364 20.8719 8.25163 21.2688C8.64961 21.6657 9.29487 21.6668 9.69179 21.2688L10.4994 20.4611L11.3304 21.2921C11.7284 21.6901 12.3726 21.6901 12.7706 21.2921C13.1686 20.8941 13.1686 20.2489 12.7706 19.8509L11.9396 19.021Z" fill="black"/>
</g>
</svg>
