<svg width="36" height="36" viewBox="0 0 36 36" fill="none" xmlns="http://www.w3.org/2000/svg">
<path fill-rule="evenodd" clip-rule="evenodd" d="M21.0063 2.49933L33.3906 12.6312L33.4544 12.7013C33.6473 12.9133 33.9426 13.2511 34.1927 13.654C34.4312 14.0386 34.7143 14.6168 34.7143 15.2943V32.1398C34.7143 33.5588 33.5659 34.7143 32.1429 34.7143H24.1201C23.055 34.7143 22.1916 33.8508 22.1916 32.7857V26.735C22.1916 24.4219 20.3217 22.5521 18.0216 22.5521C15.7216 22.5521 13.8516 24.4219 13.8516 26.735V32.7857C13.8516 33.8508 12.9883 34.7143 11.9231 34.7143H3.85714C2.43409 34.7143 1.28571 33.5588 1.28571 32.1398V15.0975C1.28571 14.2587 1.75241 13.5823 2.01839 13.2464C2.17349 13.0506 2.32551 12.8911 2.43811 12.7805C2.49518 12.7244 2.54413 12.679 2.58094 12.6458C2.59939 12.6292 2.61494 12.6155 2.6271 12.6049L2.6428 12.5914L2.64866 12.5864L2.65214 12.5834C2.65214 12.5834 2.65315 12.5826 3.48107 13.5662L2.65315 12.5826L2.66595 12.5718L14.9513 2.50221C16.6438 0.881321 19.3122 0.880047 21.0063 2.49933ZM4.3103 14.549L4.30303 14.5554C4.29008 14.5671 4.26797 14.5876 4.23976 14.6152C4.1818 14.6722 4.10642 14.7518 4.03411 14.843C3.95956 14.9372 3.906 15.0215 3.87481 15.0871C3.86564 15.1064 3.8602 15.1202 3.85714 15.129V32.1398L3.85722 32.1418L3.85804 32.1429H11.2803V26.735C11.2803 23.0076 14.2956 19.9806 18.0216 19.9806C21.7477 19.9806 24.763 23.0076 24.763 26.735V32.1429H32.142L32.1429 32.1398V15.2943C32.1429 15.2986 32.1439 15.299 32.1429 15.2943C32.1385 15.2758 32.1156 15.1836 32.0076 15.0097C31.8996 14.8357 31.7578 14.6619 31.6131 14.4992L19.2909 4.41829L19.2489 4.37707C18.5436 3.68336 17.4151 3.68389 16.7104 4.37829L16.6685 4.41956L4.3103 14.549Z" fill="#0E5744"/>
</svg>
