<svg width="70" height="70" viewBox="0 0 70 70" fill="none" xmlns="http://www.w3.org/2000/svg">
<path d="M62.9643 66.1073H43.1395C40.024 66.1073 37.4983 63.5815 37.4983 60.466V18.8821C37.4983 15.7666 40.024 13.2408 43.1395 13.2408H62.9645C66.08 13.2408 68.6057 15.7666 68.6057 18.8821V60.4661C68.6056 63.5816 66.0799 66.1073 62.9643 66.1073Z" fill="#F15A24"/>
<path d="M60.9075 44.5095C59.223 44.5095 57.8576 43.144 57.8576 41.4595C57.8576 36.4339 54.0177 30.866 50.9026 27.3046C49.9626 29.4489 48.8683 32.3504 48.1759 35.5117C47.8152 37.1573 46.1877 38.1985 44.5441 37.8383C42.8987 37.478 41.857 35.8519 42.2174 34.2065C43.8449 26.7773 47.2957 20.8071 47.4418 20.5565C47.9032 19.7654 48.6957 19.2235 49.6003 19.0806C50.5047 18.9377 51.4259 19.2088 52.1087 19.8193C52.5926 20.2517 63.957 30.5354 63.957 41.4595C63.9574 43.144 62.592 44.5095 60.9075 44.5095Z" fill="#FBB03B"/>
<path d="M7.03568 56.759H26.8606C29.9761 56.759 32.5019 54.2332 32.5019 51.1177V9.53387C32.5019 6.41832 29.9761 3.89258 26.8606 3.89258H7.03568C3.92014 3.89258 1.39439 6.41832 1.39439 9.53387V51.1178C1.39439 54.2334 3.92014 56.759 7.03568 56.759Z" fill="#F15A24"/>
<path d="M9.09248 35.1612C10.777 35.1612 12.1424 33.7958 12.1424 32.1113C12.1424 27.0856 15.9823 21.5177 19.0974 17.9564C20.0374 20.1007 21.1317 23.0021 21.8241 26.1635C22.1848 27.809 23.8123 28.8503 25.4559 28.49C27.1014 28.1297 28.143 26.5036 27.7826 24.8582C26.155 17.429 22.7043 11.4588 22.5582 11.2082C22.0968 10.4171 21.3043 9.87519 20.3997 9.73232C19.4953 9.58945 18.5741 9.86056 17.8913 10.471C17.4074 10.9035 6.04297 21.1872 6.04297 32.1113C6.04256 33.7956 7.40797 35.1612 9.09248 35.1612Z" fill="#FBB03B"/>
<path d="M62.9643 11.8466H43.1395C39.2602 11.8466 36.1039 15.0027 36.1039 18.8822V60.4662C36.1039 64.3456 39.2602 67.5019 43.1395 67.5019H62.9643C66.8437 67.5019 70 64.3457 70 60.4662V18.8822C70 15.0027 66.8437 11.8466 62.9643 11.8466ZM67.2112 60.4661C67.2112 62.8078 65.3062 64.713 62.9643 64.713H43.1395C40.7977 64.713 38.8927 62.8079 38.8927 60.4661V18.8822C38.8927 16.5405 40.7977 14.6353 43.1395 14.6353H62.9643C65.3062 14.6353 67.2112 16.5404 67.2112 18.8822V60.4661Z" fill="black"/>
<path d="M53.0384 18.7797C52.0391 17.8862 50.7063 17.4941 49.3831 17.7033C48.0591 17.9125 46.9124 18.6966 46.2376 19.854C46.0869 20.1124 42.5291 26.2682 40.8554 33.9082C40.3311 36.302 41.8521 38.676 44.2456 39.2003C45.4048 39.4543 46.5932 39.2417 47.5932 38.6013C48.5933 37.9609 49.2841 36.9696 49.5381 35.8099C49.9435 33.9588 50.5471 31.9777 51.309 29.9864C53.5094 32.8088 56.4631 37.3615 56.4631 41.4594C56.4631 43.91 58.4567 45.9037 60.9072 45.9037C63.3578 45.9037 65.3516 43.9102 65.3516 41.4596C65.3518 29.9175 53.5411 19.229 53.0384 18.7797ZM46.8141 35.2133C46.7195 35.6452 46.4624 36.0142 46.0895 36.253C45.717 36.4916 45.2744 36.5709 44.8429 36.4763C43.9512 36.2811 43.3847 35.3966 43.5799 34.5051C45.0185 27.9378 47.918 22.5545 48.5345 21.4566L49.3737 27.3306C48.231 30.0241 47.3704 32.6732 46.8141 35.2133ZM60.9075 43.1151C59.9948 43.1151 59.2523 42.3724 59.2523 41.4596C59.2523 35.6928 54.8145 29.6862 52.0762 26.529L51.279 20.9486C52.4617 22.0284 62.563 31.5436 62.563 41.4596C62.563 42.3724 61.8203 43.1151 60.9075 43.1151Z" fill="black"/>
<path d="M57.0812 59.0715H56.5977C55.8277 59.0715 55.2033 59.6958 55.2033 60.4659C55.2033 61.2361 55.8277 61.8603 56.5977 61.8603H57.0812C57.8512 61.8603 58.4756 61.2361 58.4756 60.4659C58.4756 59.6958 57.8514 59.0715 57.0812 59.0715Z" fill="black"/>
<path d="M51.6015 59.0715H43.2202C42.4502 59.0715 41.8258 59.6958 41.8258 60.4659C41.8258 61.2361 42.4502 61.8603 43.2202 61.8603H51.6015C52.3715 61.8603 52.9959 61.2361 52.9959 60.4659C52.9959 59.6958 52.3715 59.0715 51.6015 59.0715Z" fill="black"/>
<path d="M26.8604 2.49817H7.03568C3.15629 2.49817 0 5.65432 0 9.53385V51.1178C0 54.9972 3.15629 58.1535 7.03568 58.1535H26.8604C30.7398 58.1535 33.8961 54.9974 33.8961 51.1178V9.53385C33.8961 5.65432 30.7398 2.49817 26.8604 2.49817ZM31.1073 51.1177C31.1073 53.4594 29.2023 55.3646 26.8604 55.3646H7.03568C4.69383 55.3646 2.78879 53.4595 2.78879 51.1177V9.53385C2.78879 7.19213 4.69383 5.28696 7.03568 5.28696H26.8604C29.2023 5.28696 31.1073 7.192 31.1073 9.53385V51.1177Z" fill="black"/>
<path d="M23.7624 10.5059C23.0876 9.34815 21.9409 8.5642 20.6169 8.35502C19.2927 8.14584 17.9607 8.53823 16.9619 9.43127C16.4592 9.88053 4.64816 20.5676 4.64816 32.1113C4.64816 34.5618 6.64193 36.5556 9.09248 36.5556C11.543 36.5556 13.5367 34.562 13.5367 32.1113C13.5367 28.0134 16.4903 23.4608 18.6907 20.6384C19.4528 22.6298 20.0561 24.6106 20.4616 26.4621C20.7156 27.6216 21.4065 28.6128 22.4066 29.2533C23.4065 29.8936 24.5954 30.1064 25.7538 29.8523C28.1477 29.328 29.6687 26.9538 29.1443 24.5599C27.4708 16.92 23.9129 10.7641 23.7624 10.5059ZM10.7477 32.1113C10.7477 33.024 10.0052 33.7667 9.09248 33.7667C8.17974 33.7667 7.43709 33.024 7.43709 32.1113C7.43709 22.1941 17.5377 12.6807 18.7212 11.6005L17.924 17.1809C15.1856 20.338 10.7477 26.3445 10.7477 32.1113ZM25.1569 27.128C24.7254 27.2228 24.2829 27.1432 23.9106 26.9046C23.5379 26.666 23.2805 26.2968 23.1861 25.865C22.6298 23.3248 21.7693 20.6757 20.6268 17.9821L21.4659 12.1081C22.0823 13.2058 24.9817 18.5891 26.4205 25.1564C26.6154 26.0483 26.0489 26.9326 25.1569 27.128Z" fill="black"/>
<path d="M13.4021 49.7233H12.9187C12.1487 49.7233 11.5243 50.3475 11.5243 51.1177C11.5243 51.8878 12.1487 52.5121 12.9187 52.5121H13.4021C14.1721 52.5121 14.7965 51.8878 14.7965 51.1177C14.7965 50.3475 14.1723 49.7233 13.4021 49.7233Z" fill="black"/>
<path d="M26.7801 49.7233H18.3988C17.6288 49.7233 17.0044 50.3475 17.0044 51.1177C17.0044 51.8878 17.6288 52.5121 18.3988 52.5121H26.7801C27.5501 52.5121 28.1745 51.8878 28.1745 51.1177C28.1745 50.3475 27.5501 49.7233 26.7801 49.7233Z" fill="black"/>
</svg>
