<svg width="70" height="70" viewBox="0 0 70 70" fill="none" xmlns="http://www.w3.org/2000/svg">
<path fill-rule="evenodd" clip-rule="evenodd" d="M40.0536 11.2125C51.0477 13.5375 59.3058 23.3 59.3058 35C59.3058 48.425 48.4241 59.3125 35.0063 59.3125C21.5885 59.3125 10.7068 48.425 10.7068 35C10.7068 23.3 18.9649 13.5375 29.959 11.2125H40.0411H40.0536Z" fill="#8996A8"/>
<path fill-rule="evenodd" clip-rule="evenodd" d="M35.9183 11.5125C35.4185 11.0125 34.6065 11.0125 34.1067 11.5125C33.607 12.0125 33.607 12.825 34.1067 13.325C34.6065 13.825 35.4185 13.825 35.9183 13.325C36.418 12.825 36.418 12.0125 35.9183 11.5125Z" fill="#E8A3C1"/>
<path fill-rule="evenodd" clip-rule="evenodd" d="M45.4257 24.475C43.5392 22.5875 41.178 21.25 38.6043 20.6L35.0063 19.475L24.5993 24.4875C21.8383 27.25 20.2767 30.9875 20.2642 34.9L24.6243 45.2875C27.3729 48.0625 31.1084 49.625 35.0063 49.65L45.4257 45.325C48.1867 42.5625 49.7484 38.8125 49.7484 34.9L45.4257 24.4625V24.475Z" fill="#E8A3C1"/>
<path fill-rule="evenodd" clip-rule="evenodd" d="M35.0063 34.9125H20.2642C20.2892 38.8125 21.8508 42.55 24.6243 45.3L35.0063 34.9125Z" fill="#F0F3F5"/>
<path fill-rule="evenodd" clip-rule="evenodd" d="M35.0063 34.9125V49.6625C38.9167 49.6625 42.6647 48.1 45.4257 45.3375L35.0063 34.9125Z" fill="#F0F3F5"/>
<path fill-rule="evenodd" clip-rule="evenodd" d="M35.0063 34.9125H49.7484C49.7484 31 48.1992 27.25 45.4257 24.475L35.0063 34.9125Z" fill="#F0F3F5"/>
<path fill-rule="evenodd" clip-rule="evenodd" d="M35.0062 19.4875L31.4082 20.6125C28.8345 21.275 26.4733 22.625 24.5993 24.5125L35.0062 34.925V19.5V19.4875Z" fill="#F0F3F5"/>
<path fill-rule="evenodd" clip-rule="evenodd" d="M35.9682 11.2125C46.9623 13.5375 55.2204 23.3 55.2204 35C55.2204 47.7374 45.4257 58.1749 32.9698 59.2124C33.6445 59.2749 34.3191 59.2999 35.0187 59.2999C48.4365 59.2999 59.3182 48.4124 59.3182 34.9874C59.3182 23.2874 51.0601 13.525 40.066 11.2H35.9807L35.9682 11.2125Z" fill="#7A8594"/>
<path fill-rule="evenodd" clip-rule="evenodd" d="M40.1535 12.575C40.1535 18.8 35.0062 25.8376 35.0062 25.8376C35.0062 25.8376 29.859 18.8 29.859 12.575C29.859 8.67505 32.1578 7.05005 35.0062 7.05005C37.8547 7.05005 40.1535 8.67505 40.1535 12.575Z" fill="#F5E680"/>
<path d="M41.028 10.2125C40.2535 7.47505 38.1171 5.80005 35.0063 5.80005C31.8954 5.80005 29.7591 7.46255 28.9845 10.2125C17.6406 12.975 9.45746 23.2501 9.45746 35.0001C9.45746 49.0876 20.9138 60.5626 35.0063 60.5626C49.0987 60.5626 60.5551 49.1001 60.5551 35.0001C60.5551 23.2501 52.372 12.975 41.028 10.2125ZM48.3866 33.7501H38.0172L45.3632 26.4001C47.0623 28.4501 48.1242 31.0001 48.3866 33.7501ZM26.4359 45.3376L33.7569 38.0126V48.3751C30.9834 48.1126 28.4723 47.0251 26.4359 45.3376ZM21.6384 36.2501H31.9954L24.6743 43.5751C22.9877 41.5376 21.9008 39.0251 21.6384 36.2501ZM33.7569 26.2375V31.975L26.4109 24.6251C27.8226 23.4501 29.4717 22.5751 31.2958 22.0625C32.3202 24.0875 33.3197 25.6 33.7569 26.2375ZM24.6368 26.3876L31.9829 33.7375H21.6134C21.8758 30.9875 22.9377 28.4376 24.6368 26.3876ZM36.2556 38.0126L43.5767 45.3376C41.5403 47.0251 39.0291 48.1126 36.2556 48.3751V38.0126ZM45.3382 43.5751L38.0172 36.2501H48.3741C48.1118 39.0251 47.0248 41.5376 45.3382 43.5751ZM36.2556 31.9876V26.2501C36.6929 25.6251 37.6923 24.1 38.7168 22.0751C40.5408 22.6 42.1899 23.475 43.6017 24.6375L36.2556 31.9876ZM35.0063 8.31255C36.7803 8.31255 38.9042 9.05005 38.9042 12.5875C38.9042 16.675 36.443 21.2626 35.0063 23.5876C33.5695 21.2626 31.1084 16.6875 31.1084 12.5875C31.1084 9.05005 33.2322 8.31255 35.0063 8.31255ZM35.0063 58.0626C22.3006 58.0626 11.9561 47.7126 11.9561 35.0001C11.9561 24.7251 18.9024 15.7375 28.6347 12.925C28.6972 15.2625 29.3718 17.6625 30.2463 19.7875C23.3625 21.9501 19.0148 28.3751 19.0148 35.0001C19.0148 43.8001 26.161 51.0001 35.0063 51.0001C43.8515 51.0001 50.9977 43.8501 50.9977 35.0001C50.9977 28.4126 46.6875 21.9625 39.7662 19.7875C40.6408 17.6625 41.3154 15.2625 41.3779 12.925C51.1101 15.7375 58.0564 24.7251 58.0564 35.0001C58.0564 47.7126 47.712 58.0626 35.0063 58.0626Z" fill="black"/>
<path d="M35.0063 67.5C34.3191 67.5 33.7569 68.0625 33.7569 68.75C33.7569 69.4375 34.3191 70 35.0063 70C37.5174 70 40.0161 69.7375 42.4273 69.2125C43.1019 69.0625 43.5267 68.4 43.3893 67.725C43.2519 67.05 42.5772 66.625 41.9026 66.7625C39.6538 67.25 37.33 67.5 35.0063 67.5Z" fill="black"/>
<path d="M57.9689 57.975C55.058 60.8875 51.6598 63.2 47.8868 64.8375C47.2497 65.1125 46.9623 65.8499 47.2372 66.4875C47.4371 66.9625 47.8993 67.2375 48.3866 67.2375C48.549 67.2375 48.7239 67.2 48.8863 67.1375C52.9466 65.375 56.5947 62.8875 59.743 59.75C60.2302 59.2625 60.2302 58.475 59.743 57.9875C59.2558 57.5 58.4687 57.5 57.9814 57.9875L57.9689 57.975Z" fill="black"/>
<path d="M63.416 12.3875C64.1032 12.3875 64.6654 11.825 64.6654 11.1375C64.6654 10.45 64.1032 9.88745 63.416 9.88745H58.856C58.1689 9.88745 57.6067 10.45 57.6067 11.1375V15.7C57.6067 16.3875 58.1689 16.95 58.856 16.95C59.5431 16.95 60.1053 16.3875 60.1053 15.7V14.375C64.8902 20.175 67.4889 27.3875 67.4889 35C67.4889 40.675 66.0022 46.2624 63.2037 51.1499C62.8538 51.75 63.0662 52.5125 63.6659 52.8625C63.8658 52.975 64.0782 53.0249 64.2906 53.0249C64.7278 53.0249 65.1401 52.7999 65.3775 52.3999C68.4009 47.125 70 41.1125 70 35C70 26.625 67.0516 18.7 61.692 12.3875H63.441H63.416Z" fill="black"/>
<path d="M28.1099 3.2375C30.3587 2.75 32.6825 2.5 35.0063 2.5C35.6934 2.5 36.2556 1.9375 36.2556 1.25C36.2556 0.5625 35.6934 0 35.0063 0C32.4951 0 29.9964 0.2625 27.5852 0.7875C26.9106 0.9375 26.4858 1.6 26.6232 2.275C26.7482 2.8625 27.2729 3.2625 27.8476 3.2625C27.935 3.2625 28.0225 3.2625 28.1099 3.2375Z" fill="black"/>
<path d="M12.0435 12.025C14.9545 9.11248 18.3527 6.79998 22.1256 5.16248C22.7628 4.88748 23.0501 4.14998 22.7753 3.51248C22.5004 2.87498 21.7758 2.58748 21.1262 2.86248C17.0658 4.62498 13.4178 7.11248 10.2695 10.25C9.78225 10.7375 9.78225 11.525 10.2695 12.0125C10.5194 12.2625 10.8317 12.375 11.1565 12.375C11.4813 12.375 11.7937 12.25 12.0435 12.0125V12.025Z" fill="black"/>
<path d="M8.33303 57.6125H6.58397C5.89684 57.6125 5.33464 58.175 5.33464 58.8625C5.33464 59.55 5.89684 60.1125 6.58397 60.1125H11.144C11.8312 60.1125 12.3934 59.55 12.3934 58.8625V54.3C12.3934 53.6125 11.8312 53.05 11.144 53.05C10.4569 53.05 9.8947 53.6125 9.8947 54.3V55.625C5.10976 49.825 2.51115 42.6125 2.51115 35C2.51115 29.325 3.99786 23.7375 6.79636 18.85C7.14617 18.25 6.93379 17.4875 6.33411 17.1375C5.73443 16.7875 4.97234 17 4.62252 17.6C1.59914 22.875 0 28.8875 0 35C0 43.375 2.94842 51.3 8.30805 57.6125H8.33303Z" fill="black"/>
<path d="M35.0062 53.25C34.3066 53.25 33.7194 53.825 33.7194 54.5375C33.7194 55.25 34.2941 55.825 35.0062 55.825C35.7184 55.825 36.293 55.25 36.293 54.5375C36.293 53.825 35.7184 53.25 35.0062 53.25Z" fill="black"/>
<path d="M54.5208 33.7125C53.8212 33.7125 53.234 34.2875 53.234 35C53.234 35.7125 53.8087 36.2875 54.5208 36.2875C55.2329 36.2875 55.8076 35.7125 55.8076 35C55.8076 34.2875 55.2329 33.7125 54.5208 33.7125Z" fill="black"/>
<path d="M15.4917 33.7125C14.7921 33.7125 14.2049 34.2875 14.2049 35C14.2049 35.7125 14.7796 36.2875 15.4917 36.2875C16.2038 36.2875 16.7785 35.7125 16.7785 35C16.7785 34.2875 16.2038 33.7125 15.4917 33.7125Z" fill="black"/>
<path d="M48.8113 19.9C48.474 19.9 48.1492 20.0375 47.8993 20.275C47.662 20.5125 47.5245 20.8375 47.5245 21.1875C47.5245 21.5375 47.662 21.85 47.8993 22.1C48.1367 22.3375 48.4615 22.475 48.8113 22.475C49.1611 22.475 49.4735 22.3375 49.7233 22.1C49.9607 21.8625 50.0982 21.5375 50.0982 21.1875C50.0982 20.8375 49.9607 20.525 49.7233 20.275C49.486 20.0375 49.1611 19.9 48.8113 19.9Z" fill="black"/>
<path d="M21.2011 47.525C20.8638 47.525 20.539 47.6625 20.2891 47.9C20.0393 48.1375 19.9143 48.4625 19.9143 48.8125C19.9143 49.1625 20.0517 49.475 20.2891 49.725C20.5265 49.9625 20.8513 50.1 21.2011 50.1C21.5509 50.1 21.8633 49.9625 22.1131 49.725C22.363 49.4875 22.4879 49.1625 22.4879 48.8125C22.4879 48.4625 22.3505 48.15 22.1131 47.9C21.8758 47.6625 21.5509 47.525 21.2011 47.525Z" fill="black"/>
<path d="M48.8113 47.525C48.474 47.525 48.1492 47.6625 47.8993 47.9C47.662 48.1375 47.5245 48.4625 47.5245 48.8125C47.5245 49.1625 47.662 49.475 47.8993 49.725C48.1367 49.975 48.4615 50.1 48.8113 50.1C49.1611 50.1 49.4735 49.9625 49.7233 49.725C49.9607 49.4875 50.0982 49.1625 50.0982 48.8125C50.0982 48.4625 49.9607 48.15 49.7233 47.9C49.486 47.6625 49.1611 47.525 48.8113 47.525Z" fill="black"/>
<path d="M21.2011 22.475C21.5385 22.475 21.8633 22.3375 22.1131 22.1C22.3505 21.8625 22.4879 21.5375 22.4879 21.1875C22.4879 20.8375 22.3505 20.525 22.1131 20.275C21.8758 20.0375 21.5509 19.9 21.2011 19.9C20.8513 19.9 20.539 20.0375 20.2891 20.275C20.0517 20.5125 19.9143 20.8375 19.9143 21.1875C19.9143 21.5375 20.0517 21.85 20.2891 22.1C20.5265 22.35 20.8513 22.475 21.2011 22.475Z" fill="black"/>
<path d="M35.0062 13.7C35.3436 13.7 35.6684 13.5625 35.9182 13.325C36.1681 13.0875 36.293 12.7625 36.293 12.4125C36.293 12.0625 36.1556 11.75 35.9182 11.5C35.6809 11.2625 35.356 11.125 35.0062 11.125C34.6564 11.125 34.3441 11.2625 34.0942 11.5C33.8569 11.7375 33.7194 12.0625 33.7194 12.4125C33.7194 12.7625 33.8569 13.075 34.0942 13.325C34.3316 13.575 34.6689 13.7 35.0062 13.7Z" fill="black"/>
</svg>
