<svg width="36" height="36" viewBox="0 0 36 36" fill="none" xmlns="http://www.w3.org/2000/svg">
<rect x="1.75" y="11.75" width="19.5" height="19.5" rx="9.75" stroke="#0E5744" stroke-width="1.5"/>
<rect x="21.5" y="4.5" width="11" height="11" rx="5.5" stroke="#0E5744"/>
<path d="M21.4456 13.8765C21.4838 13.9022 21.5119 13.9403 21.5253 13.9843L22.4699 17.0905C22.5353 17.3054 22.2514 17.4482 22.1178 17.2677L18.4795 12.3488C18.346 12.1683 18.5656 11.9386 18.752 12.064L21.4456 13.8765Z" fill="#0E5744"/>
<path d="M10.3584 26.424C10.3264 26.584 10.2304 26.7227 10.0704 26.84C9.9211 26.9467 9.70777 27 9.43044 27C9.19577 27 9.0091 26.936 8.87044 26.808C8.74244 26.68 8.6731 26.5467 8.66244 26.408C8.72644 25.96 8.75844 25.288 8.75844 24.392C8.75844 23.8587 8.72644 23.0373 8.66244 21.928C8.58777 20.8827 8.55044 19.9547 8.55044 19.144C8.55044 18.7067 8.57177 18.2587 8.61444 17.8C8.61444 17.6507 8.69977 17.4907 8.87044 17.32C9.05177 17.1493 9.2971 17.0427 9.60644 17C10.6198 16.8933 11.8624 16.84 13.3344 16.84H13.8464C14.2304 16.84 14.6038 16.9093 14.9664 17.048C15.3398 17.1867 15.5264 17.4267 15.5264 17.768C15.5264 17.992 15.4731 18.168 15.3664 18.296C15.2598 18.424 15.0624 18.488 14.7744 18.488C14.6358 18.488 14.4758 18.4773 14.2944 18.456C14.1131 18.4347 13.9851 18.4187 13.9104 18.408C13.5051 18.344 13.1904 18.312 12.9664 18.312C11.7291 18.312 10.7958 18.3973 10.1664 18.568C10.1664 18.92 10.1771 19.4907 10.1984 20.28L10.2144 21.304C10.7691 21.304 11.2651 21.2827 11.7024 21.24C12.1398 21.1867 12.3904 21.1547 12.4544 21.144C13.0091 21.08 13.3771 21.048 13.5584 21.048C13.8144 21.048 14.0278 21.1067 14.1984 21.224C14.3798 21.3307 14.4704 21.5013 14.4704 21.736C14.4704 22.2693 14.0971 22.536 13.3504 22.536C13.1691 22.536 13.0091 22.5413 12.8704 22.552C12.7318 22.5627 12.6144 22.5733 12.5184 22.584C12.1344 22.6267 11.8304 22.648 11.6064 22.648C11.1158 22.648 10.6998 22.664 10.3584 22.696C10.3584 23.0907 10.3744 23.5067 10.4064 23.944C10.4064 24.0827 10.4118 24.296 10.4224 24.584C10.4438 24.872 10.4544 25.1333 10.4544 25.368C10.4544 25.5707 10.4491 25.7573 10.4384 25.928C10.4278 26.0987 10.4011 26.264 10.3584 26.424Z" fill="#0E5744"/>
<path d="M26.5006 11.748C26.4866 11.818 26.4446 11.8787 26.3746 11.93C26.3092 11.9767 26.2159 12 26.0946 12C25.9919 12 25.9102 11.972 25.8496 11.916C25.7936 11.86 25.7632 11.8017 25.7586 11.741C25.7866 11.545 25.8006 11.251 25.8006 10.859C25.8006 10.6257 25.7866 10.2663 25.7586 9.781C25.7259 9.32367 25.7096 8.91767 25.7096 8.563C25.7096 8.37167 25.7189 8.17567 25.7376 7.975C25.7376 7.90967 25.7749 7.83967 25.8496 7.765C25.9289 7.69033 26.0362 7.64367 26.1716 7.625C26.6149 7.57833 27.1586 7.555 27.8026 7.555H28.0266C28.1946 7.555 28.3579 7.58533 28.5166 7.646C28.6799 7.70667 28.7616 7.81167 28.7616 7.961C28.7616 8.059 28.7382 8.136 28.6916 8.192C28.6449 8.248 28.5586 8.276 28.4326 8.276C28.3719 8.276 28.3019 8.27133 28.2226 8.262C28.1432 8.25267 28.0872 8.24567 28.0546 8.241C27.8772 8.213 27.7396 8.199 27.6416 8.199C27.1002 8.199 26.6919 8.23633 26.4166 8.311C26.4166 8.465 26.4212 8.71467 26.4306 9.06L26.4376 9.508C26.6802 9.508 26.8972 9.49867 27.0886 9.48C27.2799 9.45667 27.3896 9.44267 27.4176 9.438C27.6602 9.41 27.8212 9.396 27.9006 9.396C28.0126 9.396 28.1059 9.42167 28.1806 9.473C28.2599 9.51967 28.2996 9.59433 28.2996 9.697C28.2996 9.93033 28.1362 10.047 27.8096 10.047C27.7302 10.047 27.6602 10.0493 27.5996 10.054C27.5389 10.0587 27.4876 10.0633 27.4456 10.068C27.2776 10.0867 27.1446 10.096 27.0466 10.096C26.8319 10.096 26.6499 10.103 26.5006 10.117C26.5006 10.2897 26.5076 10.4717 26.5216 10.663C26.5216 10.7237 26.5239 10.817 26.5286 10.943C26.5379 11.069 26.5426 11.1833 26.5426 11.286C26.5426 11.3747 26.5402 11.4563 26.5356 11.531C26.5309 11.6057 26.5192 11.678 26.5006 11.748Z" fill="#0E5744"/>
</svg>
